# xmcd
#
# Track frame offsets:
#	150
#	11824
#	28091
#	39151
#	56768
#	73350
#	90941
#	106413
#	119757
#	131146
#	146801
#
# Disc length: 2099 seconds
#
# Revision: 1
# Processed by: cddbd v1.5.2PL0 Copyright (c) Steve Scherf et al.
# Submitted via: audiograbber 1.83.01
#
DISCID=a308310b
DTITLE=Targino Gondim - Sou o Forró
DYEAR=2013
DGENRE=Forró
TTITLE0=Sou o Forró
TTITLE1=Amor do Bom com Carinho
TTITLE2=Cante Comigo
TTITLE3=Chorôrô
TTITLE4=O Porto Seguro e o Além-Mar
TTITLE5=Despedida de Solteira
TTITLE6=O Xote de Inho
TTITLE7=Panhã-Panhã
TTITLE8=Deixe Estar
TTITLE9=Não dá Mais
TTITLE10=O Encanto do Beija-Flor
EXTD=
EXTT0=
EXTT1=
EXTT2=
EXTT3=
EXTT4=
EXTT5=
EXTT6=
EXTT7=
EXTT8=
EXTT9=
EXTT10=
PLAYORDER=
